<mxfile host="app.diagrams.net" modified="2023-10-24T17:55:46.068Z" agent="Mozilla/5.0 (Windows NT 10.0; Win64; x64) AppleWebKit/537.36 (KHTML, like Gecko) Chrome/118.0.0.0 Safari/537.36" etag="IS6NxUEcp9GwaauSsv2I" version="22.0.7" type="google">
  <diagram name="Pagina-1" id="0y4GLCWF2F_dhRwjK6Gn">
    <mxGraphModel grid="1" page="1" gridSize="10" guides="1" tooltips="1" connect="1" arrows="1" fold="1" pageScale="1" pageWidth="827" pageHeight="1169" background="none" math="0" shadow="0">
      <root>
        <mxCell id="0" />
        <mxCell id="1" parent="0" />
        <mxCell id="NyD0VHz1KFgcrODVEiC5-7" value="" style="rounded=0;whiteSpace=wrap;html=1;fillColor=#E3F9FF;strokeColor=#6FABAB;spacingLeft=5;spacingRight=2;spacingTop=2;spacingBottom=2;" vertex="1" parent="1">
          <mxGeometry x="-636" y="400" width="620" height="210" as="geometry" />
        </mxCell>
        <mxCell id="yZLllRXxTEuzkg8mdheH-74" value="" style="rounded=0;whiteSpace=wrap;html=1;fillColor=#eeeeee;strokeColor=#36393d;spacingLeft=5;spacingRight=2;spacingTop=2;spacingBottom=2;" vertex="1" parent="1">
          <mxGeometry x="-1466" y="1065" width="810" height="430" as="geometry" />
        </mxCell>
        <mxCell id="yZLllRXxTEuzkg8mdheH-61" value="" style="rounded=0;whiteSpace=wrap;html=1;fillColor=#B9EFF2;strokeColor=#0e8088;spacingLeft=5;spacingRight=2;spacingTop=2;spacingBottom=2;" vertex="1" parent="1">
          <mxGeometry x="-1626" y="620" width="340" height="430" as="geometry" />
        </mxCell>
        <mxCell id="yZLllRXxTEuzkg8mdheH-59" value="" style="rounded=0;whiteSpace=wrap;html=1;fillColor=#fff2cc;strokeColor=#d6b656;spacingLeft=5;spacingRight=2;spacingTop=2;spacingBottom=2;" vertex="1" parent="1">
          <mxGeometry x="-1276" y="620" width="620" height="430" as="geometry" />
        </mxCell>
        <mxCell id="yZLllRXxTEuzkg8mdheH-52" value="" style="group;spacingLeft=5;spacingRight=2;spacingTop=2;spacingBottom=2;" vertex="1" connectable="0" parent="1">
          <mxGeometry x="4" y="510" width="850" height="1150" as="geometry" />
        </mxCell>
        <mxCell id="yZLllRXxTEuzkg8mdheH-50" value="" style="rounded=0;whiteSpace=wrap;html=1;fillColor=#D7FAD4;strokeColor=#499C38;spacingLeft=5;spacingRight=2;spacingTop=2;spacingBottom=2;" vertex="1" parent="yZLllRXxTEuzkg8mdheH-52">
          <mxGeometry width="395" height="570" as="geometry" />
        </mxCell>
        <mxCell id="yZLllRXxTEuzkg8mdheH-43" value="" style="rounded=0;whiteSpace=wrap;html=1;fillColor=#D7FAD4;strokeColor=#499C38;spacingLeft=5;spacingRight=2;spacingTop=2;spacingBottom=2;" vertex="1" parent="yZLllRXxTEuzkg8mdheH-52">
          <mxGeometry y="570" width="820" height="580" as="geometry" />
        </mxCell>
        <mxCell id="yZLllRXxTEuzkg8mdheH-51" value="" style="rounded=0;whiteSpace=wrap;html=1;fillColor=#D7FAD4;strokeColor=none;spacingLeft=5;spacingRight=2;spacingTop=2;spacingBottom=2;" vertex="1" parent="yZLllRXxTEuzkg8mdheH-52">
          <mxGeometry x="0.5" y="530" width="394" height="80" as="geometry" />
        </mxCell>
        <mxCell id="yZLllRXxTEuzkg8mdheH-44" value="Modules" style="text;html=1;strokeColor=none;fillColor=none;align=center;verticalAlign=middle;whiteSpace=wrap;rounded=0;fontSize=17;spacingLeft=5;spacingRight=2;spacingTop=2;spacingBottom=2;" vertex="1" parent="yZLllRXxTEuzkg8mdheH-52">
          <mxGeometry width="80" height="40" as="geometry" />
        </mxCell>
        <mxCell id="Lq-9RGTUAXxvZOl_Yq0U-10" value="&lt;b&gt;IAuthoriser (interface) argent-trustlists repo&lt;br&gt;&lt;/b&gt;&lt;span style=&quot;border-color: var(--border-color);&quot;&gt;Purpose: Return true if an address is authorised, an implementation is already deployed by Argent (Dapp Registry)&lt;/span&gt;" style="rounded=0;whiteSpace=wrap;html=1;align=left;spacingLeft=5;spacingRight=2;spacingTop=2;spacingBottom=2;" vertex="1" parent="yZLllRXxTEuzkg8mdheH-52">
          <mxGeometry x="430" y="200" width="200" height="100" as="geometry" />
        </mxCell>
        <mxCell id="yZLllRXxTEuzkg8mdheH-9" value="&lt;span style=&quot;border-color: var(--border-color);&quot;&gt;&lt;b&gt;DappRegistry (already uploaded by Argent)&amp;nbsp;&lt;/b&gt;&lt;b style=&quot;border-color: var(--border-color);&quot;&gt;argent-trustlists repo&lt;br style=&quot;border-color: var(--border-color);&quot;&gt;&lt;/b&gt;Purpose: Define dapp authorised by Argent&amp;nbsp;&lt;/span&gt;" style="rounded=0;whiteSpace=wrap;html=1;align=left;collapsible=0;enumerate=0;strokeOpacity=100;fillOpacity=100;spacingLeft=5;strokeColor=#990808;strokeWidth=4;spacingRight=2;spacingTop=2;spacingBottom=2;" vertex="1" parent="yZLllRXxTEuzkg8mdheH-52">
          <mxGeometry x="430" y="50" width="200" height="100" as="geometry" />
        </mxCell>
        <mxCell id="yZLllRXxTEuzkg8mdheH-10" value="" style="edgeStyle=orthogonalEdgeStyle;rounded=0;orthogonalLoop=1;jettySize=auto;html=1;endArrow=block;endFill=0;endSize=10;startSize=6;textOpacity=30;spacingLeft=5;spacingRight=2;spacingTop=2;spacingBottom=2;" edge="1" parent="yZLllRXxTEuzkg8mdheH-52" source="yZLllRXxTEuzkg8mdheH-9" target="Lq-9RGTUAXxvZOl_Yq0U-10">
          <mxGeometry relative="1" as="geometry">
            <mxPoint x="600.0000000000005" y="150" as="sourcePoint" />
            <mxPoint x="600.0000000000005" y="210" as="targetPoint" />
          </mxGeometry>
        </mxCell>
        <mxCell id="yZLllRXxTEuzkg8mdheH-48" value="" style="rounded=0;whiteSpace=wrap;html=1;fillColor=#e1d5e7;strokeColor=#9673a6;spacingLeft=5;spacingRight=2;spacingTop=2;spacingBottom=2;" vertex="1" parent="1">
          <mxGeometry x="-640" y="620" width="624" height="430" as="geometry" />
        </mxCell>
        <mxCell id="yZLllRXxTEuzkg8mdheH-45" value="" style="rounded=0;whiteSpace=wrap;html=1;fillColor=#FAE5D2;strokeColor=#9C7635;spacingLeft=5;spacingRight=2;spacingTop=2;spacingBottom=2;" vertex="1" parent="1">
          <mxGeometry x="-640" y="1065" width="624" height="360" as="geometry" />
        </mxCell>
        <mxCell id="O4_ZOOzB8mS3EoMVwxC9-4" value="" style="edgeStyle=orthogonalEdgeStyle;rounded=0;orthogonalLoop=1;jettySize=auto;html=1;endArrow=block;endFill=0;endSize=10;startSize=6;spacingLeft=5;spacingRight=2;spacingTop=2;spacingBottom=2;" edge="1" parent="1" source="O4_ZOOzB8mS3EoMVwxC9-1" target="O4_ZOOzB8mS3EoMVwxC9-2">
          <mxGeometry relative="1" as="geometry" />
        </mxCell>
        <mxCell id="O4_ZOOzB8mS3EoMVwxC9-6" style="edgeStyle=orthogonalEdgeStyle;rounded=0;orthogonalLoop=1;jettySize=auto;html=1;endArrow=diamond;endFill=0;endSize=11;spacingLeft=5;spacingRight=2;spacingTop=2;spacingBottom=2;" edge="1" parent="1" source="O4_ZOOzB8mS3EoMVwxC9-1" target="O4_ZOOzB8mS3EoMVwxC9-5">
          <mxGeometry relative="1" as="geometry">
            <Array as="points">
              <mxPoint x="94" y="850" />
              <mxPoint x="94" y="1090" />
              <mxPoint x="-246" y="1090" />
            </Array>
          </mxGeometry>
        </mxCell>
        <mxCell id="yZLllRXxTEuzkg8mdheH-25" style="edgeStyle=none;curved=1;rounded=0;orthogonalLoop=1;jettySize=auto;html=1;entryX=1;entryY=0.5;entryDx=0;entryDy=0;fontSize=12;startSize=8;endSize=8;endArrow=blockThin;endFill=0;dashed=1;fillColor=#ffe6cc;strokeColor=#d79b00;spacingLeft=5;spacingRight=2;spacingTop=2;spacingBottom=2;" edge="1" parent="1" source="O4_ZOOzB8mS3EoMVwxC9-1" target="yZLllRXxTEuzkg8mdheH-15">
          <mxGeometry relative="1" as="geometry" />
        </mxCell>
        <mxCell id="yZLllRXxTEuzkg8mdheH-26" value="call Invoke()" style="edgeLabel;html=1;align=center;verticalAlign=middle;resizable=0;points=[];fontSize=14;fontColor=#d1a624;spacingLeft=5;spacingRight=2;spacingTop=2;spacingBottom=2;" vertex="1" connectable="0" parent="yZLllRXxTEuzkg8mdheH-25">
          <mxGeometry x="0.2853" y="3" relative="1" as="geometry">
            <mxPoint x="32" as="offset" />
          </mxGeometry>
        </mxCell>
        <mxCell id="O4_ZOOzB8mS3EoMVwxC9-1" value="&lt;b&gt;BaseModule (abstract)&lt;br&gt;&lt;/b&gt;&lt;span style=&quot;border-color: var(--border-color);&quot;&gt;Purpose:&amp;nbsp;&lt;/span&gt;Common login to all modules, instantiate IModuleRegistry, ITransferStorage, IGuardianStorage and IAuthoriser&lt;br&gt;&lt;br&gt;Declare:&amp;nbsp;&lt;br&gt;enum&amp;nbsp;OwnerSignature&lt;br&gt;struct Session&lt;br&gt;struct Lock" style="rounded=0;whiteSpace=wrap;html=1;align=left;spacingLeft=5;spacingRight=2;spacingTop=2;spacingBottom=2;" vertex="1" parent="1">
          <mxGeometry x="104" y="760" width="200" height="180" as="geometry" />
        </mxCell>
        <mxCell id="O4_ZOOzB8mS3EoMVwxC9-2" value="&lt;b&gt;IModule (interface)&lt;br&gt;&lt;/b&gt;Purpose: Interface for all modules, add and init modules" style="rounded=0;whiteSpace=wrap;html=1;align=left;spacingLeft=5;spacingRight=2;spacingTop=2;spacingBottom=2;" vertex="1" parent="1">
          <mxGeometry x="104" y="660" width="200" height="60" as="geometry" />
        </mxCell>
        <mxCell id="O4_ZOOzB8mS3EoMVwxC9-5" value="&lt;b&gt;IModuleRegistry (interface)&lt;br&gt;&lt;/b&gt;&lt;span style=&quot;border-color: var(--border-color);&quot;&gt;Purpose: Register of usable modules&lt;/span&gt;" style="rounded=0;whiteSpace=wrap;html=1;align=left;spacingLeft=5;spacingRight=2;spacingTop=2;spacingBottom=2;" vertex="1" parent="1">
          <mxGeometry x="-346" y="1110" width="200" height="60" as="geometry" />
        </mxCell>
        <mxCell id="O4_ZOOzB8mS3EoMVwxC9-7" value="Inheritance" style="edgeStyle=orthogonalEdgeStyle;rounded=0;orthogonalLoop=1;jettySize=auto;html=1;endArrow=block;endFill=0;endSize=10;startSize=6;fontStyle=1;spacingLeft=5;spacingRight=2;" edge="1" parent="1">
          <mxGeometry x="-1" y="-10" relative="1" as="geometry">
            <mxPoint x="-1610" y="100" as="sourcePoint" />
            <mxPoint x="-1610" y="20" as="targetPoint" />
            <mxPoint x="-10" y="10" as="offset" />
          </mxGeometry>
        </mxCell>
        <mxCell id="O4_ZOOzB8mS3EoMVwxC9-9" style="edgeStyle=orthogonalEdgeStyle;rounded=0;orthogonalLoop=1;jettySize=auto;html=1;endArrow=diamond;endFill=0;endSize=11;spacingLeft=5;spacingRight=2;" edge="1" parent="1">
          <mxGeometry relative="1" as="geometry">
            <mxPoint x="-1510" y="100" as="sourcePoint" />
            <mxPoint x="-1510" y="20" as="targetPoint" />
          </mxGeometry>
        </mxCell>
        <mxCell id="O4_ZOOzB8mS3EoMVwxC9-10" value="Aggregation" style="edgeLabel;html=1;align=center;verticalAlign=middle;resizable=0;points=[];fontStyle=1;spacingLeft=5;spacingRight=2;" vertex="1" connectable="0" parent="O4_ZOOzB8mS3EoMVwxC9-9">
          <mxGeometry x="-0.255" y="1" relative="1" as="geometry">
            <mxPoint x="1" y="40" as="offset" />
          </mxGeometry>
        </mxCell>
        <mxCell id="O4_ZOOzB8mS3EoMVwxC9-12" value="" style="rounded=0;whiteSpace=wrap;html=1;fillColor=#dae8fc;strokeColor=#6c8ebf;spacingLeft=5;spacingRight=2;spacingTop=2;spacingBottom=2;" vertex="1" parent="1">
          <mxGeometry x="754" y="610" width="900" height="440" as="geometry" />
        </mxCell>
        <mxCell id="O4_ZOOzB8mS3EoMVwxC9-13" value="Storage" style="text;html=1;strokeColor=none;fillColor=none;align=center;verticalAlign=middle;whiteSpace=wrap;rounded=0;fontSize=17;spacingLeft=5;spacingRight=2;spacingTop=2;spacingBottom=2;" vertex="1" parent="1">
          <mxGeometry x="754" y="610" width="70" height="40" as="geometry" />
        </mxCell>
        <mxCell id="O4_ZOOzB8mS3EoMVwxC9-14" value="&lt;b&gt;ITransferStorage (interface)&lt;br&gt;&lt;/b&gt;&lt;span style=&quot;background-color: initial;&quot;&gt;Purpose: set and get a whitelist&lt;/span&gt;&lt;b&gt;&lt;br&gt;&lt;/b&gt;" style="rounded=0;whiteSpace=wrap;html=1;align=left;spacingLeft=5;spacingRight=2;spacingTop=2;spacingBottom=2;" vertex="1" parent="1">
          <mxGeometry x="844" y="720" width="200" height="60" as="geometry" />
        </mxCell>
        <mxCell id="O4_ZOOzB8mS3EoMVwxC9-15" style="edgeStyle=orthogonalEdgeStyle;rounded=0;orthogonalLoop=1;jettySize=auto;html=1;endArrow=diamond;endFill=0;endSize=11;spacingLeft=5;spacingRight=2;spacingTop=2;spacingBottom=2;" edge="1" parent="1" source="O4_ZOOzB8mS3EoMVwxC9-1" target="O4_ZOOzB8mS3EoMVwxC9-14">
          <mxGeometry relative="1" as="geometry">
            <mxPoint x="334" y="770" as="sourcePoint" />
            <mxPoint x="514" y="650" as="targetPoint" />
            <Array as="points">
              <mxPoint x="694" y="850" />
              <mxPoint x="694" y="750" />
            </Array>
          </mxGeometry>
        </mxCell>
        <mxCell id="Lq-9RGTUAXxvZOl_Yq0U-1" value="&lt;b&gt;TransferStorage&lt;br&gt;&lt;/b&gt;&lt;span style=&quot;background-color: initial;&quot;&gt;Purpose: S&lt;/span&gt;toring the state of wallets related to transfers (limit and whitelist). &lt;br&gt;&lt;br&gt;Only defines basic setters and getters with no logic. Only modules authorised&lt;span style=&quot;background-color: initial;&quot;&gt;&amp;nbsp;can modify the state.&lt;br&gt;&lt;/span&gt;" style="rounded=0;whiteSpace=wrap;html=1;align=left;spacingLeft=5;spacingRight=2;spacingTop=2;spacingBottom=2;strokeWidth=4;strokeColor=#990808;" vertex="1" parent="1">
          <mxGeometry x="1124" y="685" width="200" height="130" as="geometry" />
        </mxCell>
        <mxCell id="Lq-9RGTUAXxvZOl_Yq0U-2" value="" style="edgeStyle=orthogonalEdgeStyle;rounded=0;orthogonalLoop=1;jettySize=auto;html=1;endArrow=block;endFill=0;endSize=10;startSize=6;exitX=0;exitY=0.5;exitDx=0;exitDy=0;entryX=1;entryY=0.5;entryDx=0;entryDy=0;spacingLeft=5;spacingRight=2;spacingTop=2;spacingBottom=2;" edge="1" parent="1" source="Lq-9RGTUAXxvZOl_Yq0U-1" target="O4_ZOOzB8mS3EoMVwxC9-14">
          <mxGeometry relative="1" as="geometry">
            <mxPoint x="788.55" y="830" as="sourcePoint" />
            <mxPoint x="788.55" y="790" as="targetPoint" />
          </mxGeometry>
        </mxCell>
        <mxCell id="Lq-9RGTUAXxvZOl_Yq0U-3" value="&lt;b&gt;Storage&lt;br&gt;&lt;/b&gt;&lt;span style=&quot;background-color: initial;&quot;&gt;Purpose: declare the modifier onlyModule for authorizated access&lt;br&gt;&lt;/span&gt;" style="rounded=0;whiteSpace=wrap;html=1;align=left;spacingLeft=5;spacingRight=2;spacingTop=2;spacingBottom=2;" vertex="1" parent="1">
          <mxGeometry x="1384" y="815" width="200" height="60" as="geometry" />
        </mxCell>
        <mxCell id="Lq-9RGTUAXxvZOl_Yq0U-4" value="" style="edgeStyle=orthogonalEdgeStyle;rounded=0;orthogonalLoop=1;jettySize=auto;html=1;endArrow=block;endFill=0;endSize=10;startSize=6;exitX=1;exitY=0.5;exitDx=0;exitDy=0;entryX=0;entryY=0.5;entryDx=0;entryDy=0;spacingLeft=5;spacingRight=2;spacingTop=2;spacingBottom=2;" edge="1" parent="1" source="Lq-9RGTUAXxvZOl_Yq0U-1" target="Lq-9RGTUAXxvZOl_Yq0U-3">
          <mxGeometry relative="1" as="geometry">
            <mxPoint x="924" y="840" as="sourcePoint" />
            <mxPoint x="924" y="790" as="targetPoint" />
          </mxGeometry>
        </mxCell>
        <mxCell id="Lq-9RGTUAXxvZOl_Yq0U-5" value="&lt;b&gt;IGuardianStorage (interface)&lt;br&gt;&lt;/b&gt;Purpose: All utils to manage&lt;span style=&quot;background-color: initial;&quot;&gt;&amp;nbsp;guardians list&amp;nbsp;&lt;/span&gt;&lt;b&gt;&lt;br&gt;&lt;/b&gt;" style="rounded=0;whiteSpace=wrap;html=1;align=left;spacingLeft=5;spacingRight=2;spacingTop=2;spacingBottom=2;" vertex="1" parent="1">
          <mxGeometry x="844" y="905" width="200" height="60" as="geometry" />
        </mxCell>
        <mxCell id="Lq-9RGTUAXxvZOl_Yq0U-6" style="edgeStyle=orthogonalEdgeStyle;rounded=0;orthogonalLoop=1;jettySize=auto;html=1;endArrow=diamond;endFill=0;endSize=11;spacingLeft=5;spacingRight=2;spacingTop=2;spacingBottom=2;" edge="1" parent="1" source="O4_ZOOzB8mS3EoMVwxC9-1" target="Lq-9RGTUAXxvZOl_Yq0U-5">
          <mxGeometry relative="1" as="geometry">
            <mxPoint x="294" y="830" as="sourcePoint" />
            <mxPoint x="524" y="840" as="targetPoint" />
            <Array as="points">
              <mxPoint x="694" y="850" />
              <mxPoint x="694" y="935" />
            </Array>
          </mxGeometry>
        </mxCell>
        <mxCell id="Lq-9RGTUAXxvZOl_Yq0U-7" value="&lt;b&gt;GuardianStorage&lt;br&gt;&lt;/b&gt;&lt;span style=&quot;background-color: initial;&quot;&gt;Purpose: S&lt;/span&gt;toring the state of wallets related to guardians and lock.&lt;br&gt;&lt;br&gt;Only defines basic setters and getters with no logic. Only modules authorised&lt;span style=&quot;background-color: initial;&quot;&gt;&amp;nbsp;can modify the state.&lt;br&gt;&lt;br&gt;Declare:&lt;br&gt;struct GuardianStorageConfig&lt;br&gt;struct GuardianInfo&lt;br&gt;&lt;/span&gt;" style="rounded=0;whiteSpace=wrap;html=1;align=left;spacingLeft=5;spacingRight=2;spacingTop=2;spacingBottom=2;strokeColor=#990808;strokeWidth=4;" vertex="1" parent="1">
          <mxGeometry x="1124" y="845" width="200" height="180" as="geometry" />
        </mxCell>
        <mxCell id="Lq-9RGTUAXxvZOl_Yq0U-8" value="" style="edgeStyle=orthogonalEdgeStyle;rounded=0;orthogonalLoop=1;jettySize=auto;html=1;endArrow=block;endFill=0;endSize=10;startSize=6;exitX=0;exitY=0.5;exitDx=0;exitDy=0;entryX=1;entryY=0.5;entryDx=0;entryDy=0;spacingLeft=5;spacingRight=2;spacingTop=2;spacingBottom=2;" edge="1" parent="1" source="Lq-9RGTUAXxvZOl_Yq0U-7" target="Lq-9RGTUAXxvZOl_Yq0U-5">
          <mxGeometry relative="1" as="geometry">
            <mxPoint x="1134" y="760" as="sourcePoint" />
            <mxPoint x="1054" y="760" as="targetPoint" />
          </mxGeometry>
        </mxCell>
        <mxCell id="Lq-9RGTUAXxvZOl_Yq0U-9" value="" style="edgeStyle=orthogonalEdgeStyle;rounded=0;orthogonalLoop=1;jettySize=auto;html=1;endArrow=block;endFill=0;endSize=10;startSize=6;exitX=1;exitY=0.5;exitDx=0;exitDy=0;entryX=0;entryY=0.5;entryDx=0;entryDy=0;spacingLeft=5;spacingRight=2;spacingTop=2;spacingBottom=2;" edge="1" parent="1" source="Lq-9RGTUAXxvZOl_Yq0U-7" target="Lq-9RGTUAXxvZOl_Yq0U-3">
          <mxGeometry relative="1" as="geometry">
            <mxPoint x="1134" y="945" as="sourcePoint" />
            <mxPoint x="1054" y="920" as="targetPoint" />
          </mxGeometry>
        </mxCell>
        <mxCell id="Lq-9RGTUAXxvZOl_Yq0U-11" style="edgeStyle=orthogonalEdgeStyle;rounded=0;orthogonalLoop=1;jettySize=auto;html=1;endArrow=diamond;endFill=0;endSize=11;entryX=0.5;entryY=1;entryDx=0;entryDy=0;spacingLeft=5;spacingRight=2;spacingTop=2;spacingBottom=2;" edge="1" parent="1" source="O4_ZOOzB8mS3EoMVwxC9-1" target="Lq-9RGTUAXxvZOl_Yq0U-10">
          <mxGeometry relative="1" as="geometry">
            <mxPoint x="324" y="860" as="sourcePoint" />
            <mxPoint x="444" y="960" as="targetPoint" />
            <Array as="points">
              <mxPoint x="534" y="850" />
            </Array>
          </mxGeometry>
        </mxCell>
        <mxCell id="Lq-9RGTUAXxvZOl_Yq0U-12" value="&lt;b&gt;TransactionManager (abstract)&lt;br&gt;&lt;/b&gt;&lt;span style=&quot;border-color: var(--border-color);&quot;&gt;Purpose:&amp;nbsp;Module to execute transactions in sequence to e.g. transfer tokens (ETH, ERC20, ERC721, ERC1155) or call third-party contracts&lt;span style=&quot;background-color: initial;&quot;&gt;&amp;nbsp;&lt;/span&gt;&lt;br&gt;&lt;/span&gt;&lt;br&gt;Declare:&amp;nbsp;&lt;br&gt;struct Call" style="rounded=0;whiteSpace=wrap;html=1;align=left;strokeColor=#009900;strokeWidth=2;spacingLeft=5;spacingRight=2;spacingTop=2;spacingBottom=2;" vertex="1" parent="1">
          <mxGeometry x="104" y="1190" width="200" height="180" as="geometry" />
        </mxCell>
        <mxCell id="Lq-9RGTUAXxvZOl_Yq0U-13" value="" style="edgeStyle=orthogonalEdgeStyle;rounded=0;orthogonalLoop=1;jettySize=auto;html=1;endArrow=block;endFill=0;endSize=10;startSize=6;spacingLeft=5;spacingRight=2;spacingTop=2;spacingBottom=2;" edge="1" parent="1" source="Lq-9RGTUAXxvZOl_Yq0U-12" target="O4_ZOOzB8mS3EoMVwxC9-1">
          <mxGeometry relative="1" as="geometry">
            <mxPoint x="204" y="1390" as="sourcePoint" />
            <mxPoint x="214" y="730" as="targetPoint" />
          </mxGeometry>
        </mxCell>
        <mxCell id="Lq-9RGTUAXxvZOl_Yq0U-14" value="Module" style="rounded=0;whiteSpace=wrap;html=1;align=center;strokeColor=#009900;strokeWidth=2;fontStyle=1;spacingLeft=5;spacingRight=2;" vertex="1" parent="1">
          <mxGeometry x="-1440" y="40" width="120" height="80" as="geometry" />
        </mxCell>
        <mxCell id="Lq-9RGTUAXxvZOl_Yq0U-16" value="&lt;b&gt;SecurityManager (abstract)&lt;br&gt;&lt;/b&gt;&lt;span style=&quot;border-color: var(--border-color);&quot;&gt;Purpose: Module implementing the key security features of the wallet: guardians, lock and recovery.&lt;br&gt;&lt;br&gt;&lt;/span&gt;Declare:&amp;nbsp;&lt;br&gt;struct&amp;nbsp;RecoveryConfig&lt;br&gt;struct&amp;nbsp;GuardianManagerConfig" style="rounded=0;whiteSpace=wrap;html=1;align=left;strokeColor=#009900;strokeWidth=2;spacingLeft=5;spacingRight=2;spacingTop=2;spacingBottom=2;" vertex="1" parent="1">
          <mxGeometry x="344" y="1190" width="200" height="180" as="geometry" />
        </mxCell>
        <mxCell id="Lq-9RGTUAXxvZOl_Yq0U-17" value="" style="edgeStyle=orthogonalEdgeStyle;rounded=0;orthogonalLoop=1;jettySize=auto;html=1;endArrow=block;endFill=0;endSize=10;startSize=6;spacingLeft=5;spacingRight=2;spacingTop=2;spacingBottom=2;" edge="1" parent="1" source="Lq-9RGTUAXxvZOl_Yq0U-16" target="O4_ZOOzB8mS3EoMVwxC9-1">
          <mxGeometry relative="1" as="geometry">
            <mxPoint x="214" y="1200" as="sourcePoint" />
            <mxPoint x="214" y="950" as="targetPoint" />
            <Array as="points">
              <mxPoint x="444" y="1130" />
              <mxPoint x="204" y="1130" />
            </Array>
          </mxGeometry>
        </mxCell>
        <mxCell id="Lq-9RGTUAXxvZOl_Yq0U-18" value="&lt;b&gt;RelayerManager (abstract)&lt;br&gt;&lt;/b&gt;&lt;span style=&quot;border-color: var(--border-color);&quot;&gt;Purpose:&amp;nbsp;Module to execute transactions signed by ETH-less accounts and sent by a relayer.&lt;br&gt;&lt;br&gt;&lt;/span&gt;Declare:&amp;nbsp;&lt;br&gt;struct&amp;nbsp;RelayerConfig&lt;br&gt;struct&amp;nbsp;StackExtension" style="rounded=0;whiteSpace=wrap;html=1;align=left;strokeColor=#009900;strokeWidth=2;spacingLeft=5;spacingRight=2;spacingTop=2;spacingBottom=2;" vertex="1" parent="1">
          <mxGeometry x="584" y="1270" width="200" height="180" as="geometry" />
        </mxCell>
        <mxCell id="Lq-9RGTUAXxvZOl_Yq0U-19" value="" style="edgeStyle=orthogonalEdgeStyle;rounded=0;orthogonalLoop=1;jettySize=auto;html=1;endArrow=block;endFill=0;endSize=10;startSize=6;spacingLeft=5;spacingRight=2;spacingTop=2;spacingBottom=2;" edge="1" parent="1" source="Lq-9RGTUAXxvZOl_Yq0U-18" target="O4_ZOOzB8mS3EoMVwxC9-1">
          <mxGeometry relative="1" as="geometry">
            <mxPoint x="454" y="1200" as="sourcePoint" />
            <mxPoint x="214" y="950" as="targetPoint" />
            <Array as="points">
              <mxPoint x="604" y="1130" />
              <mxPoint x="204" y="1130" />
            </Array>
          </mxGeometry>
        </mxCell>
        <mxCell id="Lq-9RGTUAXxvZOl_Yq0U-20" value="&lt;b&gt;SimpleOracle&lt;br&gt;&lt;/b&gt;&lt;span style=&quot;background-color: initial;&quot;&gt;Purpose: Swap tokens with Uniswap&lt;/span&gt;&lt;span style=&quot;background-color: initial;&quot;&gt;&lt;br&gt;&lt;/span&gt;" style="rounded=0;whiteSpace=wrap;html=1;align=left;spacingLeft=5;spacingRight=2;spacingTop=2;spacingBottom=2;" vertex="1" parent="1">
          <mxGeometry x="614" y="1140" width="140" height="90" as="geometry" />
        </mxCell>
        <mxCell id="Lq-9RGTUAXxvZOl_Yq0U-21" value="" style="edgeStyle=orthogonalEdgeStyle;rounded=0;orthogonalLoop=1;jettySize=auto;html=1;endArrow=block;endFill=0;endSize=10;startSize=6;spacingLeft=5;spacingRight=2;spacingTop=2;spacingBottom=2;" edge="1" parent="1" source="Lq-9RGTUAXxvZOl_Yq0U-18" target="Lq-9RGTUAXxvZOl_Yq0U-20">
          <mxGeometry relative="1" as="geometry">
            <mxPoint x="614" y="1280" as="sourcePoint" />
            <mxPoint x="214" y="950" as="targetPoint" />
            <Array as="points" />
          </mxGeometry>
        </mxCell>
        <mxCell id="yZLllRXxTEuzkg8mdheH-1" value="&lt;b&gt;ArgentModule&lt;br&gt;&lt;/b&gt;&lt;span style=&quot;background-color: initial;&quot;&gt;Purpose:&amp;nbsp;&lt;/span&gt;Single module for the Argent wallet" style="rounded=0;whiteSpace=wrap;html=1;align=left;fillColor=#FFFFFF;strokeColor=#990808;spacingLeft=5;spacingRight=2;spacingTop=2;spacingBottom=2;strokeWidth=4;" vertex="1" parent="1">
          <mxGeometry x="364" y="1560" width="140" height="90" as="geometry" />
        </mxCell>
        <mxCell id="yZLllRXxTEuzkg8mdheH-2" value="" style="edgeStyle=orthogonalEdgeStyle;rounded=0;orthogonalLoop=1;jettySize=auto;html=1;endArrow=block;endFill=0;endSize=10;startSize=6;spacingLeft=5;spacingRight=2;spacingTop=2;spacingBottom=2;" edge="1" parent="1" source="yZLllRXxTEuzkg8mdheH-1" target="O4_ZOOzB8mS3EoMVwxC9-1">
          <mxGeometry relative="1" as="geometry">
            <mxPoint x="614" y="1280" as="sourcePoint" />
            <mxPoint x="214" y="950" as="targetPoint" />
            <Array as="points">
              <mxPoint x="434" y="1500" />
              <mxPoint x="84" y="1500" />
              <mxPoint x="84" y="1130" />
              <mxPoint x="204" y="1130" />
            </Array>
          </mxGeometry>
        </mxCell>
        <mxCell id="yZLllRXxTEuzkg8mdheH-3" value="" style="edgeStyle=orthogonalEdgeStyle;rounded=0;orthogonalLoop=1;jettySize=auto;html=1;endArrow=block;endFill=0;endSize=10;startSize=6;spacingLeft=5;spacingRight=2;spacingTop=2;spacingBottom=2;" edge="1" parent="1" source="yZLllRXxTEuzkg8mdheH-1" target="Lq-9RGTUAXxvZOl_Yq0U-12">
          <mxGeometry relative="1" as="geometry">
            <mxPoint x="444" y="1570" as="sourcePoint" />
            <mxPoint x="214" y="950" as="targetPoint" />
            <Array as="points">
              <mxPoint x="434" y="1500" />
              <mxPoint x="214" y="1500" />
            </Array>
          </mxGeometry>
        </mxCell>
        <mxCell id="yZLllRXxTEuzkg8mdheH-4" value="" style="edgeStyle=orthogonalEdgeStyle;rounded=0;orthogonalLoop=1;jettySize=auto;html=1;endArrow=block;endFill=0;endSize=10;startSize=6;spacingLeft=5;spacingRight=2;spacingTop=2;spacingBottom=2;" edge="1" parent="1" source="yZLllRXxTEuzkg8mdheH-1" target="Lq-9RGTUAXxvZOl_Yq0U-16">
          <mxGeometry relative="1" as="geometry">
            <mxPoint x="444" y="1570" as="sourcePoint" />
            <mxPoint x="224" y="1380" as="targetPoint" />
            <Array as="points">
              <mxPoint x="434" y="1530" />
              <mxPoint x="434" y="1530" />
            </Array>
          </mxGeometry>
        </mxCell>
        <mxCell id="yZLllRXxTEuzkg8mdheH-5" value="" style="edgeStyle=orthogonalEdgeStyle;rounded=0;orthogonalLoop=1;jettySize=auto;html=1;endArrow=block;endFill=0;endSize=10;startSize=6;spacingLeft=5;spacingRight=2;spacingTop=2;spacingBottom=2;" edge="1" parent="1" source="yZLllRXxTEuzkg8mdheH-1" target="Lq-9RGTUAXxvZOl_Yq0U-18">
          <mxGeometry relative="1" as="geometry">
            <mxPoint x="444" y="1570" as="sourcePoint" />
            <mxPoint x="444" y="1380" as="targetPoint" />
            <Array as="points">
              <mxPoint x="434" y="1500" />
              <mxPoint x="684" y="1500" />
            </Array>
          </mxGeometry>
        </mxCell>
        <mxCell id="yZLllRXxTEuzkg8mdheH-11" value="&lt;span style=&quot;border-color: var(--border-color);&quot;&gt;&lt;b&gt;MultiCallHelper&lt;br&gt;&lt;/b&gt;Purpose:&amp;nbsp;&lt;/span&gt;Helper contract that can be used to check in one call if and why a sequence of transactions is authorised to be executed by a wallet.&lt;br&gt;&lt;br&gt;Declare:&lt;br&gt;struct Call" style="rounded=0;whiteSpace=wrap;html=1;align=left;collapsible=0;enumerate=0;strokeOpacity=100;fillOpacity=100;spacingLeft=5;spacingRight=2;spacingTop=2;spacingBottom=2;" vertex="1" parent="1">
          <mxGeometry x="644" y="390" width="200" height="140" as="geometry" />
        </mxCell>
        <mxCell id="yZLllRXxTEuzkg8mdheH-12" style="edgeStyle=orthogonalEdgeStyle;rounded=0;orthogonalLoop=1;jettySize=auto;html=1;endArrow=diamond;endFill=0;endSize=11;entryX=0.5;entryY=0;entryDx=0;entryDy=0;spacingLeft=5;spacingRight=2;spacingTop=2;spacingBottom=2;" edge="1" parent="1" source="yZLllRXxTEuzkg8mdheH-11" target="yZLllRXxTEuzkg8mdheH-9">
          <mxGeometry relative="1" as="geometry">
            <mxPoint x="484" y="860" as="sourcePoint" />
            <mxPoint x="604.0000000000005" y="560" as="targetPoint" />
            <Array as="points">
              <mxPoint x="534" y="470" />
            </Array>
          </mxGeometry>
        </mxCell>
        <mxCell id="yZLllRXxTEuzkg8mdheH-13" style="edgeStyle=orthogonalEdgeStyle;rounded=0;orthogonalLoop=1;jettySize=auto;html=1;endArrow=diamond;endFill=0;endSize=11;spacingLeft=5;spacingRight=2;spacingTop=2;spacingBottom=2;" edge="1" parent="1" source="yZLllRXxTEuzkg8mdheH-11" target="O4_ZOOzB8mS3EoMVwxC9-14">
          <mxGeometry relative="1" as="geometry">
            <mxPoint x="714" y="470" as="sourcePoint" />
            <mxPoint x="614" y="570" as="targetPoint" />
            <Array as="points">
              <mxPoint x="954" y="470" />
            </Array>
          </mxGeometry>
        </mxCell>
        <mxCell id="yZLllRXxTEuzkg8mdheH-14" value="&lt;b&gt;IWallet (interface)&lt;br&gt;&lt;/b&gt;Purpose:&amp;nbsp;Interface for the BaseWallet, save the owner, modules and authorised&amp;nbsp;" style="rounded=0;whiteSpace=wrap;html=1;align=left;spacingLeft=5;spacingRight=2;spacingTop=2;spacingBottom=2;" vertex="1" parent="1">
          <mxGeometry x="-316" y="640" width="200" height="60" as="geometry" />
        </mxCell>
        <mxCell id="yZLllRXxTEuzkg8mdheH-15" value="&lt;b&gt;BaseWallet&lt;br&gt;&lt;/b&gt;Purpose:&amp;nbsp;Simple modular wallet that authorises modules to call its invoke() method." style="rounded=0;whiteSpace=wrap;html=1;align=left;spacingLeft=5;spacingRight=2;spacingTop=2;spacingBottom=2;strokeColor=#990808;strokeWidth=4;" vertex="1" parent="1">
          <mxGeometry x="-316" y="740" width="200" height="75" as="geometry" />
        </mxCell>
        <mxCell id="yZLllRXxTEuzkg8mdheH-16" value="" style="edgeStyle=orthogonalEdgeStyle;rounded=0;orthogonalLoop=1;jettySize=auto;html=1;endArrow=block;endFill=0;endSize=10;startSize=6;spacingLeft=5;spacingRight=2;spacingTop=2;spacingBottom=2;" edge="1" parent="1" source="yZLllRXxTEuzkg8mdheH-15" target="yZLllRXxTEuzkg8mdheH-14">
          <mxGeometry relative="1" as="geometry">
            <mxPoint x="214" y="770" as="sourcePoint" />
            <mxPoint x="214" y="730" as="targetPoint" />
          </mxGeometry>
        </mxCell>
        <mxCell id="yZLllRXxTEuzkg8mdheH-17" value="&lt;b&gt;WalletFactory&lt;br&gt;&lt;/b&gt;Purpose:&amp;nbsp;Create and assign wallets to accounts. With precomputed address (Create2)" style="rounded=0;whiteSpace=wrap;html=1;align=left;spacingLeft=5;strokeColor=#990808;strokeWidth=4;spacingRight=2;spacingTop=2;spacingBottom=2;" vertex="1" parent="1">
          <mxGeometry x="-606" y="830" width="200" height="90" as="geometry" />
        </mxCell>
        <mxCell id="yZLllRXxTEuzkg8mdheH-20" value="&lt;b&gt;Proxy&lt;br&gt;&lt;/b&gt;Purpose:&amp;nbsp;Basic proxy that delegates all calls to a fixed implementing contract." style="rounded=0;whiteSpace=wrap;html=1;align=left;spacingLeft=5;spacingRight=2;strokeColor=#020799;strokeWidth=4;spacingTop=2;spacingBottom=2;" vertex="1" parent="1">
          <mxGeometry x="-316" y="925" width="200" height="85" as="geometry" />
        </mxCell>
        <mxCell id="yZLllRXxTEuzkg8mdheH-21" style="edgeStyle=orthogonalEdgeStyle;rounded=0;orthogonalLoop=1;jettySize=auto;html=1;fontSize=12;startSize=8;endSize=8;endArrow=open;endFill=0;dashed=1;exitX=1;exitY=0.5;exitDx=0;exitDy=0;spacingLeft=5;spacingRight=2;spacingTop=2;spacingBottom=2;" edge="1" parent="1" source="yZLllRXxTEuzkg8mdheH-17" target="yZLllRXxTEuzkg8mdheH-20">
          <mxGeometry relative="1" as="geometry">
            <mxPoint x="-396" y="855" as="sourcePoint" />
            <mxPoint x="-206" y="810" as="targetPoint" />
            <Array as="points">
              <mxPoint x="-406" y="885" />
              <mxPoint x="-216" y="885" />
            </Array>
          </mxGeometry>
        </mxCell>
        <mxCell id="yZLllRXxTEuzkg8mdheH-22" value="&lt;font style=&quot;font-size: 12px;&quot;&gt;&amp;lt;&amp;lt;create&amp;gt;&amp;gt;&lt;/font&gt;" style="edgeLabel;html=1;align=center;verticalAlign=middle;resizable=0;points=[];fontSize=16;spacingLeft=5;spacingRight=2;spacingTop=2;spacingBottom=2;" vertex="1" connectable="0" parent="yZLllRXxTEuzkg8mdheH-21">
          <mxGeometry x="0.1348" y="1" relative="1" as="geometry">
            <mxPoint x="-6" y="1" as="offset" />
          </mxGeometry>
        </mxCell>
        <mxCell id="yZLllRXxTEuzkg8mdheH-27" value="&lt;b&gt;Managed&lt;br&gt;&lt;/b&gt;Purpose:&amp;nbsp;Basic contract that defines a set of managers. Only the owner can add/remove managers." style="rounded=0;whiteSpace=wrap;html=1;align=left;spacingLeft=5;spacingRight=2;spacingTop=2;spacingBottom=2;" vertex="1" parent="1">
          <mxGeometry x="-946" y="845" width="200" height="60" as="geometry" />
        </mxCell>
        <mxCell id="yZLllRXxTEuzkg8mdheH-28" value="" style="edgeStyle=orthogonalEdgeStyle;rounded=0;orthogonalLoop=1;jettySize=auto;html=1;endArrow=block;endFill=0;endSize=10;startSize=6;spacingLeft=5;spacingRight=2;spacingTop=2;spacingBottom=2;" edge="1" parent="1" source="yZLllRXxTEuzkg8mdheH-17" target="yZLllRXxTEuzkg8mdheH-27">
          <mxGeometry relative="1" as="geometry">
            <mxPoint x="-206" y="765" as="sourcePoint" />
            <mxPoint x="-206" y="720" as="targetPoint" />
          </mxGeometry>
        </mxCell>
        <mxCell id="yZLllRXxTEuzkg8mdheH-29" value="&lt;b&gt;Owned&lt;br&gt;&lt;/b&gt;Purpose:&amp;nbsp;Basic contract to define an owner and change it." style="rounded=0;whiteSpace=wrap;html=1;align=left;spacingLeft=5;spacingRight=2;spacingTop=2;spacingBottom=2;" vertex="1" parent="1">
          <mxGeometry x="-1226" y="845" width="200" height="60" as="geometry" />
        </mxCell>
        <mxCell id="yZLllRXxTEuzkg8mdheH-30" value="" style="edgeStyle=orthogonalEdgeStyle;rounded=0;orthogonalLoop=1;jettySize=auto;html=1;endArrow=block;endFill=0;endSize=10;startSize=6;spacingLeft=5;spacingRight=2;spacingTop=2;spacingBottom=2;" edge="1" parent="1" source="yZLllRXxTEuzkg8mdheH-27" target="yZLllRXxTEuzkg8mdheH-29">
          <mxGeometry relative="1" as="geometry">
            <mxPoint x="-596" y="885" as="sourcePoint" />
            <mxPoint x="-736" y="885" as="targetPoint" />
          </mxGeometry>
        </mxCell>
        <mxCell id="yZLllRXxTEuzkg8mdheH-36" value="&lt;b&gt;ModuleRegistry&amp;nbsp;&lt;br&gt;&lt;/b&gt;Purpose:&amp;nbsp;Registry of authorised modules.&amp;nbsp;Modules must be registered before they can be authorised on a wallet.&lt;br&gt;&lt;br&gt;Declare:&lt;br&gt;struct Info" style="rounded=0;whiteSpace=wrap;html=1;align=left;spacingLeft=5;strokeColor=#990808;strokeWidth=4;spacingRight=2;spacingTop=2;spacingBottom=2;" vertex="1" parent="1">
          <mxGeometry x="-346" y="1247.5" width="200" height="125" as="geometry" />
        </mxCell>
        <mxCell id="yZLllRXxTEuzkg8mdheH-37" value="" style="edgeStyle=orthogonalEdgeStyle;rounded=0;orthogonalLoop=1;jettySize=auto;html=1;endArrow=block;endFill=0;endSize=10;startSize=6;spacingLeft=5;spacingRight=2;spacingTop=2;spacingBottom=2;" edge="1" parent="1" source="yZLllRXxTEuzkg8mdheH-36" target="yZLllRXxTEuzkg8mdheH-29">
          <mxGeometry relative="1" as="geometry">
            <mxPoint x="-936" y="885" as="sourcePoint" />
            <mxPoint x="-1016" y="885" as="targetPoint" />
            <Array as="points">
              <mxPoint x="-516" y="1310" />
              <mxPoint x="-516" y="1030" />
              <mxPoint x="-1126" y="1030" />
            </Array>
          </mxGeometry>
        </mxCell>
        <mxCell id="yZLllRXxTEuzkg8mdheH-39" value="&lt;b&gt;SimpleUpgrader&lt;br&gt;&lt;/b&gt;&lt;span style=&quot;border-color: var(--border-color);&quot;&gt;Purpose: A module that, when added, automatically updates the module registry (removing old modules and adding new modules)&lt;/span&gt;" style="rounded=0;whiteSpace=wrap;html=1;align=left;spacingLeft=5;spacingRight=2;spacingTop=2;spacingBottom=2;" vertex="1" parent="1">
          <mxGeometry x="104" y="530" width="200" height="90" as="geometry" />
        </mxCell>
        <mxCell id="yZLllRXxTEuzkg8mdheH-40" value="" style="edgeStyle=orthogonalEdgeStyle;rounded=0;orthogonalLoop=1;jettySize=auto;html=1;endArrow=block;endFill=0;endSize=10;startSize=6;fillColor=#ffcccc;strokeColor=#36393d;spacingLeft=5;spacingRight=2;spacingTop=2;spacingBottom=2;" edge="1" parent="1" source="yZLllRXxTEuzkg8mdheH-36" target="O4_ZOOzB8mS3EoMVwxC9-5">
          <mxGeometry relative="1" as="geometry">
            <mxPoint x="-926" y="1137" as="sourcePoint" />
            <mxPoint x="-1116" y="915" as="targetPoint" />
          </mxGeometry>
        </mxCell>
        <mxCell id="yZLllRXxTEuzkg8mdheH-41" value="Questa inheritance non c&#39;è. Ma credo sia un errore" style="text;html=1;strokeColor=none;fillColor=none;align=center;verticalAlign=middle;whiteSpace=wrap;rounded=0;fontSize=16;fontColor=#FF0000;spacingLeft=5;spacingRight=2;spacingTop=2;spacingBottom=2;" vertex="1" parent="1">
          <mxGeometry x="-346" y="1190" width="220" height="30" as="geometry" />
        </mxCell>
        <mxCell id="yZLllRXxTEuzkg8mdheH-46" value="Module Registry (usable modules)" style="text;html=1;strokeColor=none;fillColor=none;align=center;verticalAlign=middle;whiteSpace=wrap;rounded=0;fontSize=17;spacingLeft=5;spacingRight=2;spacingTop=2;spacingBottom=2;" vertex="1" parent="1">
          <mxGeometry x="-506" y="1065" width="150" height="55" as="geometry" />
        </mxCell>
        <mxCell id="yZLllRXxTEuzkg8mdheH-47" value="" style="edgeStyle=orthogonalEdgeStyle;rounded=0;orthogonalLoop=1;jettySize=auto;html=1;endArrow=block;endFill=0;endSize=10;startSize=6;spacingLeft=5;spacingRight=2;spacingTop=2;spacingBottom=2;" edge="1" parent="1" source="yZLllRXxTEuzkg8mdheH-39" target="O4_ZOOzB8mS3EoMVwxC9-2">
          <mxGeometry relative="1" as="geometry">
            <mxPoint x="214" y="770" as="sourcePoint" />
            <mxPoint x="214" y="730" as="targetPoint" />
          </mxGeometry>
        </mxCell>
        <mxCell id="yZLllRXxTEuzkg8mdheH-49" value="Wallet" style="text;html=1;strokeColor=none;fillColor=none;align=center;verticalAlign=middle;whiteSpace=wrap;rounded=0;fontSize=17;spacingLeft=5;spacingRight=2;spacingTop=2;spacingBottom=2;" vertex="1" parent="1">
          <mxGeometry x="-636" y="620" width="100" height="40" as="geometry" />
        </mxCell>
        <mxCell id="yZLllRXxTEuzkg8mdheH-53" value="&lt;b&gt;MultiSigWallet&lt;br&gt;&lt;/b&gt;Purpose: Multi signature wallet that for all calls will need an approvation by multiple person. That contract is the owner of most infrastructure contract." style="rounded=0;whiteSpace=wrap;html=1;align=left;strokeColor=#990808;strokeWidth=4;perimeterSpacing=0;spacingLeft=5;spacingRight=2;spacingTop=2;spacingBottom=2;" vertex="1" parent="1">
          <mxGeometry x="-1076" y="660" width="200" height="120" as="geometry" />
        </mxCell>
        <mxCell id="yZLllRXxTEuzkg8mdheH-55" value="&lt;span style=&quot;border-color: var(--border-color);&quot;&gt;&lt;b&gt;ArgentWalletDetector&lt;br&gt;&lt;/b&gt;Purpose:&amp;nbsp;Simple contract to detect if a given address represents an Argent wallet&lt;br&gt;&lt;/span&gt;&lt;br&gt;Declare:&amp;nbsp;&lt;br&gt;struct Info" style="rounded=0;whiteSpace=wrap;html=1;align=left;spacingLeft=5;spacingRight=2;spacingTop=2;spacingBottom=2;" vertex="1" parent="1">
          <mxGeometry x="-1566" y="815" width="200" height="120" as="geometry" />
        </mxCell>
        <mxCell id="yZLllRXxTEuzkg8mdheH-56" value="&lt;b&gt;IArgentWallet(interface)&lt;br&gt;&lt;/b&gt;Purpose: Check if is an Argent Wallet and its implementation&amp;nbsp;" style="rounded=0;whiteSpace=wrap;html=1;align=left;spacingLeft=5;spacingRight=2;spacingTop=2;spacingBottom=2;" vertex="1" parent="1">
          <mxGeometry x="-1566" y="710" width="200" height="60" as="geometry" />
        </mxCell>
        <mxCell id="yZLllRXxTEuzkg8mdheH-57" style="edgeStyle=orthogonalEdgeStyle;rounded=0;orthogonalLoop=1;jettySize=auto;html=1;endArrow=diamond;endFill=0;endSize=11;entryX=0.5;entryY=1;entryDx=0;entryDy=0;exitX=0.5;exitY=0;exitDx=0;exitDy=0;spacingLeft=5;spacingRight=2;spacingTop=2;spacingBottom=2;" edge="1" parent="1" source="yZLllRXxTEuzkg8mdheH-55" target="yZLllRXxTEuzkg8mdheH-56">
          <mxGeometry relative="1" as="geometry">
            <Array as="points">
              <mxPoint x="-1466" y="795" />
              <mxPoint x="-1466" y="795" />
            </Array>
            <mxPoint x="-1436" y="885" as="sourcePoint" />
            <mxPoint x="-1786" y="1145" as="targetPoint" />
          </mxGeometry>
        </mxCell>
        <mxCell id="yZLllRXxTEuzkg8mdheH-58" value="" style="edgeStyle=orthogonalEdgeStyle;rounded=0;orthogonalLoop=1;jettySize=auto;html=1;endArrow=block;endFill=0;endSize=10;startSize=6;spacingLeft=5;spacingRight=2;spacingTop=2;spacingBottom=2;" edge="1" parent="1" source="yZLllRXxTEuzkg8mdheH-55" target="yZLllRXxTEuzkg8mdheH-29">
          <mxGeometry relative="1" as="geometry">
            <mxPoint x="-916" y="1090" as="sourcePoint" />
            <mxPoint x="-1696" y="685" as="targetPoint" />
          </mxGeometry>
        </mxCell>
        <mxCell id="yZLllRXxTEuzkg8mdheH-60" value="Ownership" style="text;html=1;strokeColor=none;fillColor=none;align=center;verticalAlign=middle;whiteSpace=wrap;rounded=0;fontSize=17;spacingLeft=5;spacingRight=2;spacingTop=2;spacingBottom=2;" vertex="1" parent="1">
          <mxGeometry x="-1276" y="620" width="100" height="40" as="geometry" />
        </mxCell>
        <mxCell id="yZLllRXxTEuzkg8mdheH-62" value="Argent Wallet Detector" style="text;html=1;strokeColor=none;fillColor=none;align=center;verticalAlign=middle;whiteSpace=wrap;rounded=0;fontSize=17;spacingLeft=5;spacingRight=2;spacingTop=2;spacingBottom=2;" vertex="1" parent="1">
          <mxGeometry x="-1626" y="620" width="180" height="40" as="geometry" />
        </mxCell>
        <mxCell id="yZLllRXxTEuzkg8mdheH-63" value="&lt;b&gt;IENSManager (interface)&lt;br&gt;&lt;/b&gt;Purpose: Interface for ENS Manager, register and change owner ENS" style="rounded=0;whiteSpace=wrap;html=1;align=left;spacingLeft=5;spacingRight=2;spacingTop=2;spacingBottom=2;" vertex="1" parent="1">
          <mxGeometry x="-1226" y="1143.75" width="200" height="60" as="geometry" />
        </mxCell>
        <mxCell id="yZLllRXxTEuzkg8mdheH-64" value="" style="edgeStyle=orthogonalEdgeStyle;rounded=0;orthogonalLoop=1;jettySize=auto;html=1;endArrow=block;endFill=0;endSize=10;startSize=6;jumpStyle=line;spacingLeft=5;spacingRight=2;spacingTop=2;spacingBottom=2;" edge="1" parent="1" source="yZLllRXxTEuzkg8mdheH-65" target="yZLllRXxTEuzkg8mdheH-27">
          <mxGeometry relative="1" as="geometry">
            <mxPoint x="-826" y="1080" as="sourcePoint" />
            <mxPoint x="-1016" y="885" as="targetPoint" />
          </mxGeometry>
        </mxCell>
        <mxCell id="yZLllRXxTEuzkg8mdheH-65" value="&lt;b&gt;ArgentENSManager&lt;br&gt;&lt;/b&gt;Purpose: Manage the complete registration of subdomains for a single root (e.g. argent.eth)." style="rounded=0;whiteSpace=wrap;html=1;align=left;spacingLeft=5;strokeColor=#990808;strokeWidth=4;spacingRight=2;spacingTop=2;spacingBottom=2;" vertex="1" parent="1">
          <mxGeometry x="-946" y="1127.5" width="200" height="92.5" as="geometry" />
        </mxCell>
        <mxCell id="yZLllRXxTEuzkg8mdheH-66" value="" style="edgeStyle=orthogonalEdgeStyle;rounded=0;orthogonalLoop=1;jettySize=auto;html=1;endArrow=block;endFill=0;endSize=10;startSize=6;jumpStyle=line;spacingLeft=5;spacingRight=2;spacingTop=2;spacingBottom=2;" edge="1" parent="1" source="yZLllRXxTEuzkg8mdheH-65" target="yZLllRXxTEuzkg8mdheH-63">
          <mxGeometry relative="1" as="geometry">
            <mxPoint x="-826" y="1138" as="sourcePoint" />
            <mxPoint x="-826" y="915" as="targetPoint" />
          </mxGeometry>
        </mxCell>
        <mxCell id="yZLllRXxTEuzkg8mdheH-67" value="&lt;b&gt;IENSResolver (interface)&lt;br&gt;&lt;/b&gt;Purpose: Interface for ENS Resolver" style="rounded=0;whiteSpace=wrap;html=1;align=left;spacingLeft=5;spacingRight=2;spacingTop=2;spacingBottom=2;" vertex="1" parent="1">
          <mxGeometry x="-1226" y="1350" width="200" height="60" as="geometry" />
        </mxCell>
        <mxCell id="yZLllRXxTEuzkg8mdheH-68" value="&lt;b&gt;ArgentENSResolver (interface)&lt;br&gt;&lt;/b&gt;Purpose: Basic implementation of a Resolver.&amp;nbsp;The contract defines a manager role who is the only role that can add a new name&amp;nbsp;to the list of resolved names.&lt;br&gt;&lt;br&gt;Declare:&lt;br&gt;struct Record" style="rounded=0;whiteSpace=wrap;html=1;align=left;spacingLeft=5;strokeColor=#990808;strokeWidth=4;spacingRight=2;spacingTop=2;spacingBottom=2;" vertex="1" parent="1">
          <mxGeometry x="-946" y="1305" width="200" height="150" as="geometry" />
        </mxCell>
        <mxCell id="yZLllRXxTEuzkg8mdheH-69" value="" style="edgeStyle=orthogonalEdgeStyle;rounded=0;orthogonalLoop=1;jettySize=auto;html=1;endArrow=block;endFill=0;endSize=10;startSize=6;jumpStyle=line;spacingLeft=5;spacingRight=2;spacingTop=2;spacingBottom=2;" edge="1" parent="1" source="yZLllRXxTEuzkg8mdheH-68" target="yZLllRXxTEuzkg8mdheH-67">
          <mxGeometry relative="1" as="geometry">
            <mxPoint x="-836" y="1440" as="sourcePoint" />
            <mxPoint x="-745.9999999999998" y="1546" as="targetPoint" />
          </mxGeometry>
        </mxCell>
        <mxCell id="yZLllRXxTEuzkg8mdheH-70" value="" style="edgeStyle=orthogonalEdgeStyle;rounded=0;orthogonalLoop=1;jettySize=auto;html=1;endArrow=block;endFill=0;endSize=10;startSize=6;jumpStyle=line;spacingLeft=5;spacingRight=2;spacingTop=2;spacingBottom=2;" edge="1" parent="1" source="yZLllRXxTEuzkg8mdheH-68" target="yZLllRXxTEuzkg8mdheH-27">
          <mxGeometry relative="1" as="geometry">
            <mxPoint x="-836" y="1420" as="sourcePoint" />
            <mxPoint x="-836" y="1360" as="targetPoint" />
            <Array as="points">
              <mxPoint x="-706" y="1380" />
              <mxPoint x="-706" y="1090" />
              <mxPoint x="-846" y="1090" />
            </Array>
          </mxGeometry>
        </mxCell>
        <mxCell id="yZLllRXxTEuzkg8mdheH-71" style="edgeStyle=orthogonalEdgeStyle;rounded=0;orthogonalLoop=1;jettySize=auto;html=1;endArrow=diamond;endFill=0;endSize=11;spacingLeft=5;spacingRight=2;spacingTop=2;spacingBottom=2;" edge="1" parent="1" source="yZLllRXxTEuzkg8mdheH-65" target="yZLllRXxTEuzkg8mdheH-67">
          <mxGeometry relative="1" as="geometry">
            <Array as="points">
              <mxPoint x="-846" y="1250" />
              <mxPoint x="-1136" y="1250" />
            </Array>
            <mxPoint x="-1446" y="825" as="sourcePoint" />
            <mxPoint x="-1446" y="780" as="targetPoint" />
          </mxGeometry>
        </mxCell>
        <mxCell id="yZLllRXxTEuzkg8mdheH-72" value="&lt;b&gt;ENS (interface)&lt;br&gt;&lt;/b&gt;Purpose: Registry of ENS" style="rounded=0;whiteSpace=wrap;html=1;align=left;spacingLeft=5;spacingRight=2;spacingTop=2;spacingBottom=2;" vertex="1" parent="1">
          <mxGeometry x="-1426" y="1230" width="200" height="92.5" as="geometry" />
        </mxCell>
        <mxCell id="yZLllRXxTEuzkg8mdheH-73" style="edgeStyle=orthogonalEdgeStyle;rounded=0;orthogonalLoop=1;jettySize=auto;html=1;endArrow=diamond;endFill=0;endSize=11;spacingLeft=5;spacingRight=2;spacingTop=2;spacingBottom=2;" edge="1" parent="1" source="yZLllRXxTEuzkg8mdheH-65" target="yZLllRXxTEuzkg8mdheH-72">
          <mxGeometry relative="1" as="geometry">
            <Array as="points">
              <mxPoint x="-846" y="1250" />
              <mxPoint x="-1136" y="1250" />
              <mxPoint x="-1136" y="1276" />
            </Array>
            <mxPoint x="-826" y="1230" as="sourcePoint" />
            <mxPoint x="-1126" y="1360" as="targetPoint" />
          </mxGeometry>
        </mxCell>
        <mxCell id="yZLllRXxTEuzkg8mdheH-75" value="ENS" style="text;html=1;strokeColor=none;fillColor=none;align=center;verticalAlign=middle;whiteSpace=wrap;rounded=0;fontSize=17;spacingLeft=5;spacingRight=2;spacingTop=2;spacingBottom=2;" vertex="1" parent="1">
          <mxGeometry x="-1466" y="1065" width="70" height="40" as="geometry" />
        </mxCell>
        <mxCell id="NyD0VHz1KFgcrODVEiC5-1" value="Deploy una tantum" style="rounded=0;whiteSpace=wrap;html=1;align=center;strokeColor=#990808;strokeWidth=4;fontStyle=1;spacingLeft=5;spacingRight=2;" vertex="1" parent="1">
          <mxGeometry x="-1280" y="40" width="120" height="80" as="geometry" />
        </mxCell>
        <mxCell id="NyD0VHz1KFgcrODVEiC5-3" value="&lt;b&gt;ITokenRegistry (interface)&amp;nbsp;&lt;/b&gt;&lt;b style=&quot;border-color: var(--border-color);&quot;&gt;argent-trustlists repo&lt;/b&gt;&lt;b&gt;&lt;br&gt;&lt;/b&gt;Purpose: Interface for trusted ERC20 tokens&amp;nbsp;" style="rounded=0;whiteSpace=wrap;html=1;align=left;spacingLeft=5;spacingRight=2;spacingTop=2;spacingBottom=2;" vertex="1" parent="1">
          <mxGeometry x="-316" y="470" width="200" height="80" as="geometry" />
        </mxCell>
        <mxCell id="NyD0VHz1KFgcrODVEiC5-4" value="" style="edgeStyle=orthogonalEdgeStyle;rounded=0;orthogonalLoop=1;jettySize=auto;html=1;endArrow=block;endFill=0;endSize=10;startSize=6;spacingLeft=5;spacingRight=2;spacingTop=2;spacingBottom=2;" edge="1" parent="1" source="NyD0VHz1KFgcrODVEiC5-5" target="yZLllRXxTEuzkg8mdheH-27">
          <mxGeometry relative="1" as="geometry">
            <mxPoint x="-596" y="885" as="sourcePoint" />
            <mxPoint x="-746" y="410" as="targetPoint" />
          </mxGeometry>
        </mxCell>
        <mxCell id="NyD0VHz1KFgcrODVEiC5-5" value="&lt;b&gt;TokenRegistry,&amp;nbsp;&lt;/b&gt;&lt;b style=&quot;border-color: var(--border-color);&quot;&gt;argent-trustlists repo&lt;/b&gt;&lt;b&gt;&lt;br&gt;&lt;/b&gt;Purpose: Storing a list of ERC20 safely traded" style="rounded=0;whiteSpace=wrap;html=1;align=left;spacingLeft=5;spacingRight=2;strokeColor=#990808;strokeWidth=4;spacingTop=2;spacingBottom=2;" vertex="1" parent="1">
          <mxGeometry x="-586" y="470" width="200" height="80" as="geometry" />
        </mxCell>
        <mxCell id="NyD0VHz1KFgcrODVEiC5-6" value="" style="edgeStyle=orthogonalEdgeStyle;rounded=0;orthogonalLoop=1;jettySize=auto;html=1;endArrow=block;endFill=0;endSize=10;startSize=6;spacingLeft=5;spacingRight=2;spacingTop=2;spacingBottom=2;" edge="1" parent="1" source="NyD0VHz1KFgcrODVEiC5-5" target="NyD0VHz1KFgcrODVEiC5-3">
          <mxGeometry relative="1" as="geometry">
            <mxPoint x="-616" y="520" as="sourcePoint" />
            <mxPoint x="-836" y="855" as="targetPoint" />
          </mxGeometry>
        </mxCell>
        <mxCell id="NyD0VHz1KFgcrODVEiC5-8" value="ERC20 Token Registry" style="text;html=1;strokeColor=none;fillColor=none;align=center;verticalAlign=middle;whiteSpace=wrap;rounded=0;fontSize=17;spacingLeft=5;spacingRight=2;spacingTop=2;spacingBottom=2;" vertex="1" parent="1">
          <mxGeometry x="-636" y="400" width="210" height="40" as="geometry" />
        </mxCell>
        <mxCell id="NyD0VHz1KFgcrODVEiC5-9" value="Deploy per wallet" style="rounded=0;whiteSpace=wrap;html=1;align=center;strokeColor=#020799;strokeWidth=4;fontStyle=1;spacingLeft=5;spacingRight=2;" vertex="1" parent="1">
          <mxGeometry x="-1121" y="40" width="120" height="80" as="geometry" />
        </mxCell>
        <mxCell id="XOvnC-tyYCVWKN0V9VAw-1" style="edgeStyle=orthogonalEdgeStyle;rounded=0;orthogonalLoop=1;jettySize=auto;html=1;fontSize=12;startSize=8;endSize=8;endArrow=diamond;endFill=0;dashed=1;spacingLeft=5;spacingRight=2;spacingTop=2;spacingBottom=2;entryX=0.75;entryY=1;entryDx=0;entryDy=0;exitX=0.75;exitY=0;exitDx=0;exitDy=0;" edge="1" parent="1" source="yZLllRXxTEuzkg8mdheH-20" target="yZLllRXxTEuzkg8mdheH-15">
          <mxGeometry relative="1" as="geometry">
            <mxPoint x="-160" y="885" as="sourcePoint" />
            <mxPoint x="30" y="935" as="targetPoint" />
            <Array as="points">
              <mxPoint x="-166" y="910" />
              <mxPoint x="-166" y="910" />
            </Array>
          </mxGeometry>
        </mxCell>
        <mxCell id="XOvnC-tyYCVWKN0V9VAw-2" value="&lt;span style=&quot;font-size: 12px;&quot;&gt;&amp;lt;&amp;lt;delegateCall&amp;gt;&amp;gt; (1)&lt;/span&gt;" style="edgeLabel;html=1;align=center;verticalAlign=middle;resizable=0;points=[];fontSize=16;spacingLeft=5;spacingRight=2;spacingTop=2;spacingBottom=2;" connectable="0" vertex="1" parent="XOvnC-tyYCVWKN0V9VAw-1">
          <mxGeometry x="0.1348" y="1" relative="1" as="geometry">
            <mxPoint x="17" y="1" as="offset" />
          </mxGeometry>
        </mxCell>
        <mxCell id="XOvnC-tyYCVWKN0V9VAw-3" value="(1): The proxy use &lt;i&gt;delegatecall&amp;nbsp;&lt;/i&gt;to forward the call to the BaseWallet contract but maintaining the state (of BaseWallet) is maintained in the Proxy contract. In this way, it&#39;s needed only one BaseWallet to be deployed." style="text;html=1;strokeColor=none;fillColor=none;align=left;verticalAlign=middle;whiteSpace=wrap;rounded=0;" vertex="1" parent="1">
          <mxGeometry x="-1620" y="190" width="620" height="30" as="geometry" />
        </mxCell>
      </root>
    </mxGraphModel>
  </diagram>
</mxfile>
